<svg aria-hidden="true" focusable="false" data-prefix="fas" data-icon="bars" class="svg-inline--fa fa-bars fa-w-14" role="img" xmlns="http://www.w3.org/2000/svg" viewBox="0 0 448 512">
	<path fill="url(#grad1)" d="M16 132h416c8.837 0 16-7.163 16-16V76c0-8.837-7.163-16-16-16H16C7.163 60 0 67.163 0 76v40c0 8.837 7.163 16 16 16zm0 160h416c8.837 0 16-7.163 16-16v-40c0-8.837-7.163-16-16-16H16c-8.837 0-16 7.163-16 16v40c0 8.837 7.163 16 16 16zm0 160h416c8.837 0 16-7.163 16-16v-40c0-8.837-7.163-16-16-16H16c-8.837 0-16 7.163-16 16v40c0 8.837 7.163 16 16 16z">
	</path>
	<defs>
		<linearGradient id="grad1" x1="0%" y1="100%" x2="100%" y2="0%">
		  <stop offset="0%" style="stop-color:rgb(254, 39, 51);stop-opacity:1" />
		  <stop offset="30%" style="stop-color:rgb(124, 50, 91);stop-opacity:1" />
		  <stop offset="80%" style="stop-color:rgb(253, 162, 38);stop-opacity:1" />
		</linearGradient>
	</defs>
</svg>
