<svg width="294" height="30" viewBox="0 0 294 30" fill="none" xmlns="http://www.w3.org/2000/svg">
<path d="M13.9672 29H7.92719V5.48H0.167188V0.439998H21.7272V5.48H13.9672V29ZM35.8591 6.76C36.1524 6.76 36.4991 6.77333 36.8991 6.8C37.2991 6.82667 37.6191 6.86667 37.8591 6.92L37.4191 12.52C37.2324 12.4667 36.9524 12.4267 36.5791 12.4C36.2324 12.3467 35.9257 12.32 35.6591 12.32C34.8857 12.32 34.1391 12.4267 33.4191 12.64C32.6991 12.8267 32.0457 13.1333 31.4591 13.56C30.8991 13.9867 30.4457 14.56 30.0991 15.28C29.7791 15.9733 29.6191 16.84 29.6191 17.88V29H23.6591V7.16H28.1791L29.0591 10.84H29.3391C29.7657 10.0933 30.2991 9.41333 30.9391 8.8C31.5791 8.18667 32.3124 7.69333 33.1391 7.32C33.9924 6.94666 34.8991 6.76 35.8591 6.76ZM61.8631 7.16V29H57.3031L56.5031 26.2H56.1831C55.7298 26.9467 55.1431 27.56 54.4231 28.04C53.7298 28.4933 52.9565 28.8267 52.1031 29.04C51.2498 29.28 50.3698 29.4 49.4631 29.4C47.9165 29.4 46.5565 29.12 45.3831 28.56C44.2098 28 43.3031 27.1333 42.6631 25.96C42.0231 24.7867 41.7031 23.2667 41.7031 21.4V7.16H47.6631V19.92C47.6631 21.4667 47.9431 22.64 48.5031 23.44C49.0631 24.24 49.9565 24.64 51.1831 24.64C52.4098 24.64 53.3565 24.36 54.0231 23.8C54.7165 23.24 55.1965 22.4267 55.4631 21.36C55.7565 20.2933 55.9031 18.9867 55.9031 17.44V7.16H61.8631ZM83.3522 22.52C83.3522 23.9867 83.0055 25.24 82.3122 26.28C81.6189 27.2933 80.5789 28.0667 79.1922 28.6C77.8055 29.1333 76.0855 29.4 74.0322 29.4C72.5122 29.4 71.2055 29.2933 70.1122 29.08C69.0189 28.8933 67.9255 28.5733 66.8322 28.12V23.2C68.0055 23.7333 69.2722 24.1733 70.6322 24.52C71.9922 24.8667 73.1922 25.04 74.2322 25.04C75.4055 25.04 76.2322 24.8667 76.7122 24.52C77.2189 24.1733 77.4722 23.72 77.4722 23.16C77.4722 22.7867 77.3655 22.4533 77.1522 22.16C76.9655 21.8667 76.5389 21.5333 75.8722 21.16C75.2055 20.7867 74.1655 20.3067 72.7522 19.72C71.3922 19.1333 70.2722 18.56 69.3922 18C68.5122 17.4133 67.8589 16.72 67.4322 15.92C67.0055 15.0933 66.7922 14.0667 66.7922 12.84C66.7922 10.8133 67.5789 9.29333 69.1522 8.28C70.7255 7.26667 72.8189 6.76 75.4322 6.76C76.7922 6.76 78.0855 6.89333 79.3122 7.16C80.5389 7.42667 81.8055 7.86667 83.1122 8.48L81.3122 12.76C80.5922 12.44 79.8989 12.16 79.2322 11.92C78.5655 11.68 77.9122 11.4933 77.2722 11.36C76.6589 11.2267 76.0189 11.16 75.3522 11.16C74.4722 11.16 73.8055 11.28 73.3522 11.52C72.9255 11.76 72.7122 12.12 72.7122 12.6C72.7122 12.9467 72.8189 13.2667 73.0322 13.56C73.2722 13.8267 73.7122 14.12 74.3522 14.44C75.0189 14.76 75.9922 15.1867 77.2722 15.72C78.5255 16.2267 79.6055 16.76 80.5122 17.32C81.4189 17.8533 82.1122 18.5333 82.5922 19.36C83.0989 20.16 83.3522 21.2133 83.3522 22.52ZM97.195 24.64C97.8617 24.64 98.5017 24.5733 99.115 24.44C99.7283 24.3067 100.342 24.1467 100.955 23.96V28.4C100.315 28.6667 99.515 28.8933 98.555 29.08C97.6217 29.2933 96.595 29.4 95.475 29.4C94.1683 29.4 92.995 29.1867 91.955 28.76C90.9417 28.3333 90.1283 27.6 89.515 26.56C88.9283 25.4933 88.635 24.0267 88.635 22.16V11.64H85.795V9.12L89.075 7.12L90.795 2.52H94.595V7.16H100.715V11.64H94.595V22.16C94.595 22.9867 94.835 23.6133 95.315 24.04C95.795 24.44 96.4217 24.64 97.195 24.64ZM135.569 18.04C135.569 19.8533 135.316 21.4667 134.809 22.88C134.329 24.2933 133.623 25.4933 132.689 26.48C131.783 27.44 130.676 28.1733 129.369 28.68C128.063 29.16 126.583 29.4 124.929 29.4C123.409 29.4 121.996 29.16 120.689 28.68C119.409 28.1733 118.303 27.44 117.369 26.48C116.436 25.4933 115.703 24.2933 115.169 22.88C114.663 21.4667 114.409 19.8533 114.409 18.04C114.409 15.6133 114.836 13.5733 115.689 11.92C116.543 10.24 117.769 8.96 119.369 8.08C120.969 7.2 122.863 6.76 125.049 6.76C127.103 6.76 128.916 7.2 130.489 8.08C132.063 8.96 133.303 10.24 134.209 11.92C135.116 13.5733 135.569 15.6133 135.569 18.04ZM120.489 18.04C120.489 19.48 120.636 20.6933 120.929 21.68C121.249 22.64 121.743 23.3733 122.409 23.88C123.076 24.36 123.943 24.6 125.009 24.6C126.076 24.6 126.929 24.36 127.569 23.88C128.236 23.3733 128.716 22.64 129.009 21.68C129.329 20.6933 129.489 19.48 129.489 18.04C129.489 16.6 129.329 15.4 129.009 14.44C128.716 13.48 128.236 12.76 127.569 12.28C126.903 11.8 126.036 11.56 124.969 11.56C123.396 11.56 122.249 12.1067 121.529 13.2C120.836 14.2667 120.489 15.88 120.489 18.04ZM160.535 7.16V29H155.975L155.175 26.2H154.855C154.402 26.9467 153.815 27.56 153.095 28.04C152.402 28.4933 151.628 28.8267 150.775 29.04C149.922 29.28 149.042 29.4 148.135 29.4C146.588 29.4 145.228 29.12 144.055 28.56C142.882 28 141.975 27.1333 141.335 25.96C140.695 24.7867 140.375 23.2667 140.375 21.4V7.16H146.335V19.92C146.335 21.4667 146.615 22.64 147.175 23.44C147.735 24.24 148.628 24.64 149.855 24.64C151.082 24.64 152.028 24.36 152.695 23.8C153.388 23.24 153.868 22.4267 154.135 21.36C154.428 20.2933 154.575 18.9867 154.575 17.44V7.16H160.535ZM178.984 6.76C179.277 6.76 179.624 6.77333 180.024 6.8C180.424 6.82667 180.744 6.86667 180.984 6.92L180.544 12.52C180.357 12.4667 180.077 12.4267 179.704 12.4C179.357 12.3467 179.051 12.32 178.784 12.32C178.011 12.32 177.264 12.4267 176.544 12.64C175.824 12.8267 175.171 13.1333 174.584 13.56C174.024 13.9867 173.571 14.56 173.224 15.28C172.904 15.9733 172.744 16.84 172.744 17.88V29H166.784V7.16H171.304L172.184 10.84H172.464C172.891 10.0933 173.424 9.41333 174.064 8.8C174.704 8.18667 175.437 7.69333 176.264 7.32C177.117 6.94666 178.024 6.76 178.984 6.76ZM204.539 24.64C205.205 24.64 205.845 24.5733 206.459 24.44C207.072 24.3067 207.685 24.1467 208.299 23.96V28.4C207.659 28.6667 206.859 28.8933 205.899 29.08C204.965 29.2933 203.939 29.4 202.819 29.4C201.512 29.4 200.339 29.1867 199.299 28.76C198.285 28.3333 197.472 27.6 196.859 26.56C196.272 25.4933 195.979 24.0267 195.979 22.16V11.64H193.139V9.12L196.419 7.12L198.139 2.52H201.939V7.16H208.059V11.64H201.939V22.16C201.939 22.9867 202.179 23.6133 202.659 24.04C203.139 24.44 203.765 24.64 204.539 24.64ZM221.683 6.76C223.709 6.76 225.443 7.14667 226.883 7.92C228.349 8.69333 229.483 9.81333 230.283 11.28C231.083 12.7467 231.483 14.5467 231.483 16.68V19.56H217.403C217.456 21.24 217.949 22.56 218.883 23.52C219.843 24.48 221.163 24.96 222.843 24.96C224.256 24.96 225.536 24.8267 226.683 24.56C227.829 24.2667 229.016 23.8267 230.243 23.24V27.84C229.176 28.3733 228.043 28.76 226.843 29C225.669 29.2667 224.243 29.4 222.563 29.4C220.376 29.4 218.443 29 216.763 28.2C215.083 27.3733 213.763 26.1333 212.803 24.48C211.843 22.8267 211.363 20.7467 211.363 18.24C211.363 15.68 211.789 13.56 212.643 11.88C213.523 10.1733 214.736 8.89333 216.283 8.04C217.829 7.18666 219.629 6.76 221.683 6.76ZM221.723 11C220.576 11 219.616 11.3733 218.843 12.12C218.096 12.8667 217.656 14.0267 217.523 15.6H225.883C225.883 14.72 225.723 13.9333 225.403 13.24C225.109 12.5467 224.656 12 224.043 11.6C223.429 11.2 222.656 11 221.723 11ZM245.275 6.72C248.209 6.72 250.449 7.36 251.995 8.64C253.569 9.89333 254.355 11.8267 254.355 14.44V29H250.195L249.035 26.04H248.875C248.262 26.8133 247.622 27.4533 246.955 27.96C246.315 28.4667 245.569 28.8267 244.715 29.04C243.889 29.28 242.862 29.4 241.635 29.4C240.355 29.4 239.195 29.16 238.155 28.68C237.142 28.1733 236.342 27.4133 235.755 26.4C235.169 25.36 234.875 24.0533 234.875 22.48C234.875 20.16 235.689 18.4533 237.315 17.36C238.942 16.24 241.382 15.6267 244.635 15.52L248.435 15.4V14.44C248.435 13.2933 248.129 12.4533 247.515 11.92C246.929 11.3867 246.102 11.12 245.035 11.12C243.969 11.12 242.929 11.28 241.915 11.6C240.902 11.8933 239.889 12.2667 238.875 12.72L236.915 8.68C238.089 8.06667 239.382 7.58667 240.795 7.24C242.235 6.89333 243.729 6.72 245.275 6.72ZM246.115 18.96C244.195 19.0133 242.862 19.36 242.115 20C241.369 20.64 240.995 21.48 240.995 22.52C240.995 23.4267 241.262 24.08 241.795 24.48C242.329 24.8533 243.022 25.04 243.875 25.04C245.155 25.04 246.235 24.6667 247.115 23.92C247.995 23.1467 248.435 22.0667 248.435 20.68V18.88L246.115 18.96ZM286.096 6.76C288.576 6.76 290.443 7.4 291.696 8.68C292.976 9.93333 293.616 11.96 293.616 14.76V29H287.656V16.24C287.656 14.6667 287.389 13.4933 286.856 12.72C286.323 11.92 285.496 11.52 284.376 11.52C282.803 11.52 281.683 12.08 281.016 13.2C280.349 14.32 280.016 15.9333 280.016 18.04V29H274.056V16.24C274.056 15.2 273.936 14.3333 273.696 13.64C273.456 12.9467 273.096 12.4267 272.616 12.08C272.136 11.7067 271.523 11.52 270.776 11.52C269.683 11.52 268.816 11.8 268.176 12.36C267.536 12.92 267.083 13.7333 266.816 14.8C266.549 15.8667 266.416 17.1733 266.416 18.72V29H260.456V7.16H265.016L265.816 9.96H266.136C266.589 9.21333 267.149 8.61333 267.816 8.16C268.483 7.68 269.216 7.33333 270.016 7.12C270.843 6.88 271.669 6.76 272.496 6.76C274.096 6.76 275.456 7.02667 276.576 7.56C277.696 8.06667 278.549 8.86667 279.136 9.96H279.656C280.323 8.84 281.243 8.02667 282.416 7.52C283.616 7.01333 284.843 6.76 286.096 6.76Z" fill="url(#paint0_radial_9_360)"/>
<defs>
<radialGradient id="paint0_radial_9_360" cx="0" cy="0" r="1" gradientUnits="userSpaceOnUse" gradientTransform="translate(148 13) rotate(90) scale(27 149)">
<stop offset="0.229167" stop-color="#FBAC2A"/>
<stop offset="0.697917" stop-color="#FF5F27" stop-opacity="0.72"/>
<stop offset="1" stop-color="#FF3F24"/>
</radialGradient>
</defs>
</svg>
